{"title":"Alchemist FT. Prodigy &amp; Illa Ghee n Nina Sky - Hold You Down","uid":6419731,"size":80638152,"categoryP":"video","categoryS":"music_videos","magnet":"?xt=urn:btih:a43fe8ddb34e83eac59ef2900f9cd54362269b30&amp;dn=Alchemist+FT.+Prodigy+%26+Illa+Ghee+n+Nina+Sky+-+Hold+You+Down&amp;tr=udp%3A%2F%2Ftracker.openbittorrent.com%3A80&amp;tr=udp%3A%2F%2Fopen.demonii.com%3A1337&amp;tr=udp%3A%2F%2Ftracker.coppersurfer.tk%3A6969&amp;tr=udp%3A%2F%2Fexodus.desync.com%3A6969","seeders":1,"leechers":0,"uploader":"x.zone","files":-1,"time":1306275103,"description":"Format                           : MPEG-PS\nFile size                        : 76.9 MiB\nDuration                         : 4mn 2s\nOverall bit rate                 : 2 661 Kbps\nWriting library                  : encoded by TMPGEnc (ver. 2.54.36.134)\n\nVideo\nID                               : 224 (0xE0)\nFormat                           : MPEG Video\nFormat version                   : Version 2\nFormat profile                   : Main@Main\nFormat settings, BVOP            : Yes\nFormat settings, Matrix          : Default\nDuration                         : 4mn 2s\nBit rate mode                    : Variable\nBit rate                         : 2 480 Kbps\nWidth                            : 480 pixels\nHeight                           : 480 pixels\nDisplay aspect ratio             : 4:3\nFrame rate                       : 23.976 fps\nStandard                         : NTSC\nColor space                      : YUV\nChroma subsampling               : 4:2:0\nBit depth                        : 8 bits\nScan type                        : Progressive\nScan order                       : 2:3 Pulldown\nBits/(Pixel*Frame)               : 0.449\nStream size                      : 68.9 MiB (90%)\nWriting library                  : TMPGEnc 2.54.36.134\n\nAudio\nID                               : 192 (0xC0)\nFormat                           : MPEG Audio\nFormat version                   : Version 1\nFormat profile                   : Layer 2\nDuration                         : 4mn 2s\nBit rate mode                    : Constant\nBit rate                         : 224 Kbps\nChannel(s)                       : 2 channels\nSampling rate                    : 44.1 KHz\nStream size                      : 6.47 MiB (8%)\n\n================================((((( sCREEN Shot))))))==========================\n\n                   &lt;a href=&quot; http://bayimg.com/KaiEMAADe&quot; rel=&quot;nofollow&quot; target=&quot;_NEW&quot;&gt; http://bayimg.com/KaiEMAADe&lt;/a&gt;\n=================================================================================","torrent":{"xt":"urn:btih:a43fe8ddb34e83eac59ef2900f9cd54362269b30","amp;dn":"Alchemist+FT.+Prodigy+%26+Illa+Ghee+n+Nina+Sky+-+Hold+You+Down","amp;tr":["udp%3A%2F%2Ftracker.openbittorrent.com%3A80","udp%3A%2F%2Fopen.demonii.com%3A1337","udp%3A%2F%2Ftracker.coppersurfer.tk%3A6969","udp%3A%2F%2Fexodus.desync.com%3A6969"],"infoHash":"a43fe8ddb34e83eac59ef2900f9cd54362269b30","infoHashBuffer":{"type":"Buffer","data":[164,63,232,221,179,78,131,234,197,158,242,144,15,156,213,67,98,38,155,48]},"announce":[],"urlList":[]}}